<?xml version="1.0" encoding="iso-8859-1"?>
<!-- Generator: Adobe Illustrator 19.0.0, SVG Export Plug-In . SVG Version: 6.00 Build 0)  -->
<svg version="1.1" id="Layer_1" xmlns="http://www.w3.org/2000/svg" xmlns:xlink="http://www.w3.org/1999/xlink" x="0px" y="0px"
	 viewBox="0 0 512 512" style="enable-background:new 0 0 512 512;" xml:space="preserve">
<g>
	<g>
		<path d="M109.866,191.705c13.164-15.171,29.068-28.085,47.265-38.381c14.946-8.453,31.135-14.926,48.112-19.239
			c16.44-4.17,33.518-6.283,50.757-6.283c17.239,0,34.317,2.114,50.752,6.282c16.982,4.314,33.171,10.788,48.114,19.24
			c18.199,10.297,34.101,23.211,47.267,38.384c11.419,13.156,20.478,27.688,26.923,43.192c0.196,0.471,0.428,0.915,0.676,1.346
			c0.064,0.111,0.131,0.219,0.198,0.327c0.254,0.41,0.525,0.803,0.823,1.172c0.033,0.041,0.061,0.086,0.095,0.125
			c0.329,0.398,0.688,0.764,1.062,1.111c0.089,0.083,0.18,0.163,0.272,0.243c0.373,0.323,0.757,0.629,1.163,0.902
			c0.019,0.012,0.035,0.027,0.053,0.039c0.424,0.281,0.869,0.524,1.325,0.746c0.11,0.054,0.22,0.105,0.332,0.156
			c0.462,0.209,0.933,0.398,1.418,0.546c0.012,0.004,0.025,0.006,0.036,0.009c0.475,0.143,0.96,0.245,1.451,0.327
			c0.124,0.021,0.247,0.04,0.373,0.057c0.501,0.067,1.008,0.111,1.518,0.112c0.009,0,0.019,0.002,0.029,0.002
			c0.296,0,0.594-0.019,0.893-0.042c0.063-0.005,0.127-0.003,0.19-0.009c0.375-0.035,0.751-0.089,1.126-0.162
			c0.093-0.018,0.184-0.047,0.276-0.067c0.281-0.061,0.561-0.125,0.84-0.207c0.134-0.04,0.266-0.094,0.398-0.138
			c0.212-0.071,0.426-0.136,0.636-0.22c0.036-0.014,0.071-0.03,0.108-0.046c0.009-0.004,0.018-0.006,0.027-0.009
			c0.012-0.005,0.021-0.011,0.033-0.015C485.473,224.641,512,185.361,512,141.076c0-59.507-48.412-107.918-107.918-107.918
			c-47.548,0-89.082,31.183-102.978,75.659c-14.757-2.937-29.875-4.448-45.104-4.448c-15.229,0-30.346,1.509-45.104,4.448
			C197,64.34,155.466,33.158,107.918,33.158C48.412,33.158,0,81.569,0,141.076c0,40.476,22.167,76.765,57.336,95.354
			c-6.09,17.817-9.182,36.326-9.182,55.177c0,33.054,9.687,65.544,28.011,93.956c17.658,27.38,42.935,50.458,73.098,66.74
			c32.137,17.362,69.046,26.54,106.739,26.54s74.602-9.177,106.735-26.537c56.895-30.713,94.381-84.468,100.276-143.794
			c0.64-6.439-4.062-12.178-10.501-12.818c-6.438-0.635-12.178,4.062-12.816,10.5c-4.541,45.706-30.939,87.743-71.72,115.52v-70.133
			c0-45.035-40.639-81.674-90.59-81.674H234.62c-49.952,0-90.59,36.639-90.59,81.674v70.174
			c-45.688-30.893-72.444-78.37-72.444-130.149c0-19.49,3.822-38.57,11.357-56.708C89.389,219.396,98.447,204.863,109.866,191.705z
			 M414.956,170.951c-12.313-13.162-26.503-24.679-42.328-34.351c2.182-15.415,15.451-27.312,31.453-27.312
			c17.527,0,31.786,14.259,31.786,31.786C435.867,154.735,427.361,166.488,414.956,170.951z M404.08,56.59
			c46.586,0,84.486,37.901,84.486,84.486c0.001,30.96-16.568,58.787-43.007,73.626c-4.341-8.677-9.412-17.038-15.177-25.027
			c17.454-9.379,28.917-27.705,28.917-48.599c0-30.448-24.772-55.219-55.219-55.219c-24.909,0-46.007,16.589-52.858,39.297
			c-8.838-4.11-17.986-7.637-27.383-10.558C335.081,80.43,367.284,56.59,404.08,56.59z M256,379.287l-22.882-24.728h45.765
			L256,379.287z M167.46,351.582c0-32.114,30.127-58.241,67.158-58.241h42.764c37.03,0,67.158,26.127,67.158,58.241v83.709
			c-23.62,11.511-49.84,18.262-76.823,19.779v-53.944l30.851-33.341c5.991-6.459,7.524-15.488,4-23.563
			c-3.473-7.956-11.326-13.098-20.007-13.098h-53.121c-8.681,0-16.534,5.141-20.007,13.098c-3.524,8.075-1.991,17.105,3.991,23.553
			l30.861,33.351v53.944c-26.984-1.517-53.202-8.268-76.823-19.781V351.582z M97.041,170.955
			c-12.403-4.457-20.909-16.211-20.909-29.879c0-17.527,14.259-31.786,31.786-31.786c16.002,0,29.272,11.896,31.453,27.311
			C123.548,146.272,109.355,157.79,97.041,170.955z M66.439,214.702c-26.438-14.839-43.007-42.666-43.007-73.626
			c0-46.586,37.901-84.486,84.486-84.486c36.796,0,68.999,23.84,80.241,58.007c-9.396,2.922-18.544,6.447-27.383,10.557
			c-6.851-22.71-27.949-39.297-52.858-39.297c-30.447,0-55.219,24.772-55.219,55.219c0,20.901,11.461,39.227,28.913,48.603
			C75.849,197.667,70.779,206.026,66.439,214.702z"/>
	</g>
</g>
<g>
	<g>
		<path d="M462.307,268.726c-0.401-2.958-0.885-5.941-1.44-8.867c-1.206-6.357-7.336-10.527-13.695-9.326
			c-6.357,1.207-10.532,7.339-9.325,13.696c0.478,2.52,0.896,5.091,1.242,7.64c0.795,5.879,5.823,10.145,11.594,10.145
			c0.524,0,1.053-0.035,1.586-0.107C458.682,281.039,463.176,275.138,462.307,268.726z"/>
	</g>
</g>
<g>
	<g>
		<path d="M211.174,186.418c-6.47,0-11.716,5.245-11.716,11.716v25.377c0,6.471,5.247,11.716,11.716,11.716
			s11.716-5.245,11.716-11.716v-25.377C222.89,191.663,217.643,186.418,211.174,186.418z"/>
	</g>
</g>
<g>
	<g>
		<path d="M300.826,186.418c-6.47,0-11.716,5.245-11.716,11.716v25.377c0,6.471,5.247,11.716,11.716,11.716
			c6.47,0,11.716-5.245,11.716-11.716v-25.377C312.543,191.663,307.296,186.418,300.826,186.418z"/>
	</g>
</g>
<g>
</g>
<g>
</g>
<g>
</g>
<g>
</g>
<g>
</g>
<g>
</g>
<g>
</g>
<g>
</g>
<g>
</g>
<g>
</g>
<g>
</g>
<g>
</g>
<g>
</g>
<g>
</g>
<g>
</g>
</svg>
